<svg width="29" height="29" viewBox="0 0 29 29" fill="none" xmlns="http://www.w3.org/2000/svg">
<mask id="mask0_225_2152" style="mask-type:luminance" maskUnits="userSpaceOnUse" x="0" y="0" width="29" height="29">
<path d="M28.9727 0.910156H0.972656V28.9102H28.9727V0.910156Z" fill="white"/>
</mask>
<g mask="url(#mask0_225_2152)">
<path fill-rule="evenodd" clip-rule="evenodd" d="M14.9727 0.910156C7.24046 0.910156 0.972656 7.33606 0.972656 15.2653C0.972656 21.6066 4.98366 26.9878 10.5473 28.8852C11.2473 29.0171 11.5021 28.5742 11.5021 28.193C11.5021 27.8534 11.4909 26.9491 11.4839 25.7525C7.58906 26.6195 6.76726 23.8279 6.76726 23.8279C6.13166 22.1684 5.21326 21.727 5.21326 21.727C3.94206 20.8385 5.30986 20.8557 5.30986 20.8557C6.71406 20.956 7.45326 22.3346 7.45326 22.3346C8.70206 24.5272 10.7307 23.8938 11.5273 23.527C11.6561 22.5998 12.0173 21.9678 12.4177 21.6095C9.30966 21.2469 6.04066 20.0145 6.04066 14.5144C6.04066 12.948 6.58666 11.6654 7.48126 10.6622C7.33706 10.2996 6.85686 8.83935 7.61846 6.86458C7.61846 6.86458 8.79446 6.47765 11.4685 8.33491C12.6106 8.01607 13.7889 7.85367 14.9727 7.85197C16.1627 7.8577 17.3597 8.01677 18.4783 8.33491C21.1509 6.47765 22.3241 6.86314 22.3241 6.86314C23.0885 8.83935 22.6069 10.2996 22.4641 10.6622C23.3601 11.6654 23.9033 12.948 23.9033 14.5144C23.9033 20.0288 20.6287 21.2426 17.5109 21.598C18.0135 22.0409 18.4601 22.9165 18.4601 24.2564C18.4601 26.1738 18.4433 27.723 18.4433 28.193C18.4433 28.5771 18.6953 29.0242 19.4065 28.8838C22.1943 27.9266 24.6178 26.0969 26.3344 23.6531C28.051 21.2094 28.9739 18.2752 28.9727 15.2653C28.9727 7.33606 22.7035 0.910156 14.9727 0.910156Z" fill="#D1D1D6"/>
</g>
</svg>
