<svg width="47" height="29" viewBox="0 0 47 29" fill="none" xmlns="http://www.w3.org/2000/svg">
<g clip-path="url(#clip0_225_1743)">
<path fill-rule="evenodd" clip-rule="evenodd" d="M18.6488 2.74524C16.9014 1.52966 14.8121 0.921875 12.381 0.921875C9.94983 0.921875 7.86056 1.52966 6.11317 2.74524C4.36578 3.93549 3.0489 5.58159 2.16254 7.68352C1.27619 9.78546 0.833008 12.1913 0.833008 14.901C0.833008 17.6107 1.27619 20.0166 2.16254 22.1185C3.0489 24.2204 4.36578 25.8792 6.11317 27.0948C7.86056 28.285 9.94983 28.8801 12.381 28.8801C14.8121 28.8801 16.9014 28.285 18.6488 27.0948C20.3962 25.8792 21.7131 24.2204 22.5994 22.1185C23.4858 20.0166 23.929 17.6107 23.929 14.901C23.929 12.1913 23.4858 9.78546 22.5994 7.68352C21.7131 5.58159 20.3962 3.93549 18.6488 2.74524ZM15.6715 7.42671C14.8226 6.53429 13.7257 6.08808 12.381 6.08808C10.5829 6.08808 9.21542 6.8858 8.27842 8.48124C7.36673 10.0767 6.91089 12.2166 6.91089 14.901C6.91089 16.5861 7.09053 18.0568 7.44983 19.3128L15.6715 7.42671ZM9.06622 22.3723C9.92978 23.2667 11.0347 23.7139 12.381 23.7139C14.179 23.7139 15.5339 22.9162 16.4456 21.3208C17.3826 19.7253 17.8511 17.5854 17.8511 14.901C17.8511 13.2107 17.6653 11.7363 17.2938 10.4777L9.06622 22.3723Z" fill="#26272B"/>
<path d="M31.1415 17.7875L24 28.2719H30.8376L34.1805 22.3459C34.4337 21.9407 34.5857 21.4089 34.6363 20.7505C34.6616 20.4972 34.7123 20.3073 34.7882 20.1807C34.8642 20.0287 35.0162 19.9528 35.2441 19.9528C35.5986 19.9528 35.8012 20.1807 35.8519 20.6365V20.7505C35.9025 21.4089 36.0545 21.9407 36.3077 22.3459L39.6506 28.2719H46.4882L39.3467 17.7875L45.8804 8.21484H39.0428L36.3077 13.1911C36.0038 13.7229 35.8519 14.2547 35.8519 14.7866C35.8519 15.0145 35.8012 15.2044 35.6999 15.3564C35.624 15.5083 35.472 15.5843 35.2441 15.5843C35.0162 15.5843 34.8516 15.5083 34.7503 15.3564C34.6743 15.2044 34.6363 15.0145 34.6363 14.7866C34.6363 14.2547 34.4844 13.7229 34.1805 13.1911L31.4454 8.21484H24.6078L31.1415 17.7875Z" fill="#26272B"/>
</g>
<defs>
<clipPath id="clip0_225_1743">
<rect width="45.77" height="27.9964" fill="white" transform="translate(0.833008 0.921875)"/>
</clipPath>
</defs>
</svg>
