<svg width="29" height="29" viewBox="0 0 29 29" fill="none" xmlns="http://www.w3.org/2000/svg">
<path d="M11.763 14.9102C10.9606 14.9102 10.3057 15.5652 10.3057 16.3676C10.3057 17.1699 10.9606 17.8249 11.763 17.8249C12.5653 17.8249 13.2203 17.1699 13.2203 16.3676C13.2203 15.5652 12.5653 14.9102 11.763 14.9102Z" fill="#D1D1D6"/>
<path d="M14.9894 21.2796C15.5461 21.2796 17.4455 21.2141 18.4444 20.2153C18.5917 20.0679 18.5917 19.8387 18.4771 19.675C18.3297 19.5276 18.0841 19.5276 17.9367 19.675C17.2982 20.2972 15.9718 20.5264 15.0058 20.5264C14.0397 20.5264 12.697 20.2972 12.0748 19.675C11.9274 19.5276 11.6818 19.5276 11.5344 19.675C11.387 19.8223 11.387 20.0679 11.5344 20.2153C12.5169 21.1978 14.4327 21.2796 14.9894 21.2796Z" fill="#D1D1D6"/>
<path d="M16.7246 16.3676C16.7246 17.1699 17.3795 17.8249 18.1819 17.8249C18.9842 17.8249 19.6392 17.1699 19.6392 16.3676C19.6392 15.5652 18.9842 14.9102 18.1819 14.9102C17.3795 14.9102 16.7246 15.5652 16.7246 16.3676Z" fill="#D1D1D6"/>
<path fill-rule="evenodd" clip-rule="evenodd" d="M28.9727 14.9102C28.9727 22.6422 22.7047 28.9102 14.9727 28.9102C7.24067 28.9102 0.972656 22.6422 0.972656 14.9102C0.972656 7.17817 7.24067 0.910156 14.9727 0.910156C22.7047 0.910156 28.9727 7.17817 28.9727 14.9102ZM22.2593 12.8635C23.3891 12.8635 24.306 13.7804 24.306 14.9102C24.306 15.7453 23.7984 16.4658 23.1271 16.7933C23.1598 16.9898 23.1762 17.1863 23.1762 17.3991C23.1762 20.543 19.5248 23.081 15.0055 23.081C10.4861 23.081 6.83465 20.543 6.83465 17.3991C6.83465 17.1863 6.85103 16.9734 6.88378 16.7769C6.16331 16.4494 5.67208 15.7453 5.67208 14.9102C5.67208 13.7804 6.58904 12.8635 7.71887 12.8635C8.25922 12.8635 8.76682 13.0927 9.12705 13.4366C10.5352 12.405 12.4838 11.7664 14.6616 11.7009L15.6932 6.82131C15.7259 6.72307 15.775 6.6412 15.8569 6.59207C15.9388 6.54295 16.037 6.52658 16.1353 6.54295L19.5248 7.26342C19.754 6.77219 20.2452 6.44471 20.8183 6.44471C21.6207 6.44471 22.2756 7.09968 22.2756 7.90202C22.2756 8.70436 21.6207 9.35933 20.8183 9.35933C20.0324 9.35933 19.3938 8.7371 19.361 7.96751L16.3318 7.32892L15.3984 11.7009C17.5271 11.7828 19.4593 12.4377 20.8511 13.4366C21.2113 13.0763 21.7025 12.8635 22.2593 12.8635Z" fill="#D1D1D6"/>
</svg>
