<svg width="29" height="29" viewBox="0 0 29 29" fill="none" xmlns="http://www.w3.org/2000/svg">
<path fill-rule="evenodd" clip-rule="evenodd" d="M0.972656 14.9102C0.972656 7.19059 7.25309 0.910156 14.9727 0.910156C22.6928 0.910156 28.9727 7.19059 28.9727 14.9102C28.9727 22.6292 22.6917 28.9102 14.9727 28.9102C7.25309 28.9102 0.972656 22.6292 0.972656 14.9102ZM21.3421 11.6415C21.3485 11.783 21.3519 11.9257 21.3519 12.0683C21.3519 16.4115 18.047 21.4178 12.0001 21.4178C10.144 21.4178 8.41617 20.8754 6.96212 19.9425C7.21922 19.9729 7.48093 19.9885 7.74609 19.9885C9.28641 19.9885 10.7031 19.4628 11.8282 18.5816C10.3902 18.5551 9.17597 17.6049 8.75782 16.2987C8.95798 16.3367 9.16447 16.358 9.37556 16.358C9.67523 16.358 9.96627 16.3189 10.2418 16.2435C8.73826 15.9421 7.60574 14.614 7.60574 13.0208C7.60574 13.007 7.60574 12.9926 7.60632 12.9794C8.0492 13.225 8.55593 13.3734 9.0943 13.3901C8.21313 12.8016 7.63278 11.7951 7.63278 10.655C7.63278 10.0523 7.7944 9.48744 8.07739 9.00199C9.69766 10.991 12.1203 12.2989 14.8513 12.437C14.7949 12.196 14.7667 11.9458 14.7667 11.6875C14.7667 9.87281 16.238 8.40093 18.0527 8.40093C18.9983 8.40093 19.8513 8.80011 20.4518 9.43855C21.2012 9.29131 21.9029 9.01867 22.5397 8.64078C22.2923 9.40864 21.7729 10.0523 21.0925 10.4595C21.758 10.3801 22.393 10.2041 22.9802 9.94241C22.542 10.6004 21.9846 11.1796 21.3421 11.6415Z" fill="#D1D1D6"/>
</svg>
