<svg width="130" height="40" viewBox="0 0 130 40" fill="none" xmlns="http://www.w3.org/2000/svg">
<g clip-path="url(#clip0_302_751)">
<g clip-path="url(#clip1_302_751)">
<mask id="mask0_302_751" style="mask-type:luminance" maskUnits="userSpaceOnUse" x="0" y="8" width="130" height="24">
<path d="M129.494 8.49609H0.505371V31.5049H129.494V8.49609Z" fill="white"/>
</mask>
<g mask="url(#mask0_302_751)">
<path d="M26.5387 14.9197C21.8529 14.9197 18.1915 18.4718 18.1915 23.2269C18.1915 27.9821 21.7604 31.5038 26.5387 31.5038C31.3172 31.5038 34.948 27.9213 34.948 23.1966C34.948 18.5022 31.3792 14.9197 26.5387 14.9197ZM26.5704 28.0769C23.9019 28.0769 21.9466 26.0073 21.9466 23.2281C21.9466 20.4173 23.8703 18.349 26.5387 18.349C29.2388 18.349 31.193 20.4489 31.193 23.2281C31.193 26.0073 29.2388 28.0769 26.5704 28.0769ZM35.9714 18.5338H38.2991V31.1963H42.0225V15.2284H35.9714V18.5338ZM8.821 18.3479C10.7763 18.3479 12.3278 19.5521 12.9167 21.3434H16.8579C16.1437 17.5142 12.9788 14.9197 8.85258 14.9197C4.16672 14.9197 0.505371 18.4718 0.505371 23.2281C0.505371 27.9845 4.07422 31.5049 8.85258 31.5049C12.8863 31.5049 16.1132 28.9105 16.8274 25.0498H12.9167C12.3582 26.841 10.8068 28.0769 8.85142 28.0769C6.15134 28.0769 4.25922 26.0073 4.25922 23.2281C4.26039 20.4173 6.12212 18.3479 8.821 18.3479ZM106.718 21.6836L103.988 21.2826C102.685 21.0978 101.754 20.6652 101.754 19.6457C101.754 18.5338 102.964 17.9784 104.608 17.9784C106.408 17.9784 107.557 18.75 107.805 20.0163H111.404C111 16.8045 108.518 14.9209 104.702 14.9209C100.761 14.9209 98.1544 16.9284 98.1544 19.7696C98.1544 22.4869 99.8617 24.063 103.306 24.5563L106.036 24.9574C107.371 25.1421 108.116 25.6682 108.116 26.6562C108.116 27.9225 106.812 28.4475 105.012 28.4475C102.809 28.4475 101.568 27.5519 101.381 26.1932H97.7201C98.0618 29.3127 100.513 31.5049 104.981 31.5049C109.046 31.5049 111.745 29.6518 111.745 26.4703C111.745 23.6291 109.791 22.1466 106.718 21.6836ZM40.1608 8.65043C38.7955 8.65043 37.771 9.63841 37.771 10.997C37.771 12.3557 38.7944 13.3436 40.1608 13.3436C41.5261 13.3436 42.5505 12.3557 42.5505 10.997C42.5505 9.63841 41.5261 8.65043 40.1608 8.65043ZM94.8037 20.6956C94.8037 17.2371 92.6938 14.9209 88.2255 14.9209C84.0057 14.9209 81.6473 17.0523 81.1814 20.3262H84.8743C85.0606 19.0599 86.0535 18.01 88.1634 18.01C90.057 18.01 90.9877 18.8436 90.9877 19.8632C90.9877 21.1913 89.2805 21.5304 87.1706 21.7467C84.3157 22.0554 80.7787 23.0434 80.7787 26.7498C80.7787 29.6225 82.9202 31.4746 86.3336 31.4746C89.0021 31.4746 90.6771 30.3626 91.5158 28.6018C91.64 30.1767 92.8187 31.1963 94.4638 31.1963H96.6358V27.8921H94.8049V20.6956H94.8037ZM91.1419 24.7107C91.1419 26.8421 89.2805 28.417 87.0147 28.417C85.618 28.417 84.4388 27.8301 84.4388 26.5954C84.4388 25.0205 86.3319 24.5879 88.0696 24.4031C89.7452 24.2488 90.676 23.8782 91.1419 23.1673V24.7107ZM71.3767 14.9197C69.2973 14.9197 67.5595 15.785 66.3182 17.2359V8.49609H62.5948V31.1963H66.2561V29.0964C67.4974 30.6093 69.2668 31.5049 71.3767 31.5049C75.8445 31.5049 79.2273 27.9845 79.2273 23.2281C79.2273 18.4718 75.7823 14.9197 71.3767 14.9197ZM70.8182 28.0769C68.1497 28.0769 66.194 26.0073 66.194 23.2281C66.194 20.4489 68.1802 18.349 70.8487 18.349C73.5487 18.349 75.4406 20.4185 75.4406 23.2281C75.4406 26.0073 73.4866 28.0769 70.8182 28.0769ZM53.6892 14.9197C51.2689 14.9197 49.6859 15.9077 48.755 17.2979V15.2284H45.0621V31.1951H48.7855V22.5172C48.7855 20.0771 50.3369 18.3479 52.633 18.3479C54.7746 18.3479 56.1082 19.8608 56.1082 22.0542V31.1963H59.8314V21.7771C59.8326 17.7609 57.7543 14.9197 53.6892 14.9197ZM129.494 22.7031C129.494 18.1327 126.144 14.9209 121.644 14.9209C116.865 14.9209 113.359 18.5033 113.359 23.2281C113.359 28.2008 117.114 31.5049 121.706 31.5049C125.585 31.5049 128.626 29.2191 129.4 25.977H125.522C124.963 27.3975 123.598 28.2008 121.767 28.2008C119.377 28.2008 117.577 26.7182 117.174 24.1237H129.493V22.7031H129.494ZM117.392 21.4673C117.982 19.2435 119.658 18.1631 121.581 18.1631C123.691 18.1631 125.305 19.3674 125.678 21.4673H117.392Z" fill="white"/>
</g>
</g>
</g>
<defs>
<clipPath id="clip0_302_751">
<rect width="130" height="40" fill="white"/>
</clipPath>
<clipPath id="clip1_302_751">
<rect width="130" height="23.0089" fill="white" transform="translate(0 8.49609)"/>
</clipPath>
</defs>
</svg>
