<svg width="130" height="40" viewBox="0 0 130 40" fill="none" xmlns="http://www.w3.org/2000/svg">
<g clip-path="url(#clip0_302_763)">
<g clip-path="url(#clip1_302_763)">
<path fill-rule="evenodd" clip-rule="evenodd" d="M6.80544 8.99319C6.36469 8.55136 6.38732 7.82613 6.88626 7.45112C12.4155 3.30015 20.0461 3.30015 25.5754 7.45112C26.0743 7.82613 26.0979 8.55136 25.6562 8.99319L20.7606 13.8888C20.3877 14.2617 19.8036 14.3004 19.337 14.0548C17.3951 13.0321 15.0664 13.0321 13.1257 14.0548C12.6591 14.3004 12.0739 14.2617 11.7011 13.8888L6.80544 8.99319ZM27.2393 10.5751C27.68 10.1344 28.4064 10.157 28.7802 10.6559C32.9312 16.1852 32.9312 23.8158 28.7802 29.345C28.4064 29.844 27.68 29.8677 27.2393 29.4259L22.3426 24.5303C21.9697 24.1574 21.931 23.5733 22.1766 23.1067C23.1993 21.1648 23.1993 18.8361 22.1766 16.8953C21.931 16.4288 21.9697 15.8436 22.3426 15.4707L27.2393 10.5751ZM20.7606 26.1123C20.3877 25.7394 19.8036 25.7007 19.337 25.9463C17.3951 26.969 15.0664 26.969 13.1257 25.9463C12.6591 25.7007 12.0739 25.7394 11.7011 26.1123L6.80544 31.0079C6.36469 31.4486 6.38732 32.175 6.88626 32.5499C12.4155 36.7009 20.0461 36.7009 25.5754 32.5499C26.0743 32.175 26.0979 31.4486 25.6562 31.0079L20.7606 26.1123ZM10.1202 15.4707C10.4931 15.8436 10.5318 16.4288 10.2862 16.8953C9.26357 18.8361 9.26357 21.1648 10.2862 23.1067C10.5318 23.5733 10.4931 24.1574 10.1202 24.5303L5.22464 29.4259C4.78281 29.8677 4.05757 29.844 3.68256 29.345C-0.468406 23.8158 -0.468406 16.1852 3.68256 10.6559C4.05757 10.157 4.78281 10.1344 5.22464 10.5751L10.1202 15.4707Z" fill="white"/>
<path fill-rule="evenodd" clip-rule="evenodd" d="M76.7538 16.1381C77.6795 16.1381 78.3381 15.4968 78.3381 14.5895C78.3381 13.6994 77.6795 13.041 76.7538 13.041C75.8282 13.041 75.1686 13.6994 75.1686 14.5895C75.1686 15.4968 75.8282 16.1381 76.7538 16.1381ZM75.4359 26.5165H78.0707V17.4021H75.4359V26.5165ZM41.2305 26.5167H45.9838C50.3633 26.5167 53.2826 23.9886 53.2826 20.1792C53.2826 16.3699 50.3633 13.8418 45.9838 13.8418H41.2305V26.5167ZM44.1153 24.202V16.1554H45.9838C48.5831 16.1554 50.345 17.7223 50.345 20.1792C50.345 22.6534 48.5831 24.202 45.9838 24.202H44.1153ZM59.0701 26.8011C61.277 26.8011 63.0389 25.8043 63.6089 24.1664L61.3664 23.5973C60.9742 24.3441 60.1907 24.8431 59.1767 24.8431C57.8771 24.8431 56.9687 24.0068 56.7553 22.7245H63.9118C63.9473 22.5284 63.9473 22.1555 63.9473 21.9238C63.9473 19.0574 61.9537 17.1176 59.0517 17.1176C56.1141 17.1176 54.0322 19.0401 54.0322 21.8882C54.0322 24.8247 56.1141 26.8011 59.0701 26.8011ZM56.7381 21.0865C56.9515 19.8764 57.7877 19.0757 58.9806 19.0757C60.2091 19.0757 61.0992 19.9302 61.2587 21.0865H56.7381ZM68.2734 26.5167H65.3002V13.8418H74.3791V16.3699H68.2734V19.1641H73.614V21.4788H68.2734V26.5167ZM93.7627 23.134C93.7627 25.4844 91.9646 26.9617 88.8846 26.9617C85.5915 26.9617 83.5624 25.2343 83.5624 22.4401H85.1647C85.1819 24.3798 86.5524 25.5371 88.9026 25.5371C90.9497 25.5371 92.1424 24.647 92.1424 23.2408C92.1424 21.5144 90.3976 21.2288 88.511 20.9271C86.2501 20.5704 83.7582 19.9831 83.7582 17.26C83.7582 14.9992 85.485 13.5217 88.511 13.5217C91.5903 13.5217 93.4604 15.1231 93.4776 17.7761H91.9114C91.9114 15.9959 90.6646 14.9453 88.511 14.9453C86.4811 14.9453 85.3777 15.8182 85.3777 17.1706C85.3777 18.8258 87.0512 19.1285 88.9026 19.4131C91.1807 19.787 93.7627 20.2859 93.7627 23.134ZM98.1153 26.8009C99.5571 26.8009 100.608 26.2308 101.248 25.1984H101.408V26.5164H102.886V20.5528C102.886 18.5054 101.408 17.1886 99.0762 17.1886C96.8153 17.1886 95.3383 18.3987 95.3383 20.3028H96.8326C96.8153 19.1821 97.7058 18.5237 99.0582 18.5237C100.537 18.5237 101.408 19.3061 101.408 20.5173V20.8729L98.9157 21.1757C96.2452 21.4786 94.8935 22.6531 94.8935 24.2372C94.8935 25.7857 96.1747 26.8009 98.1153 26.8009ZM98.3283 25.5724C97.1184 25.5724 96.3705 25.0562 96.3705 24.2017C96.3705 23.3654 97.0832 22.6531 98.9157 22.4215L101.408 22.1369V22.9376C101.408 24.4516 100.162 25.5724 98.3283 25.5724ZM109.255 26.5165H107.155L103.737 17.5259H105.25L108.116 25.3407H108.276L111.16 17.5259H112.673L109.255 26.5165ZM117.935 26.8723C119.929 26.8723 121.548 25.9466 122.279 24.4153L121.05 23.7925C120.481 24.8604 119.306 25.5371 117.971 25.5371C116.137 25.5371 114.82 24.327 114.607 22.5112H122.563C122.58 22.3151 122.58 22.1017 122.58 21.9239C122.58 19.1641 120.605 17.1706 117.864 17.1706C115.087 17.1706 113.094 19.1641 113.094 21.9056C113.094 24.7893 115.123 26.8723 117.935 26.8723ZM114.624 21.2116C114.874 19.5919 116.137 18.5057 117.793 18.5057C119.502 18.5057 120.765 19.5919 121.032 21.2116H114.624ZM125.8 26.5167H124.321V17.5262H125.763V18.7374H125.924C126.333 17.9184 127.33 17.3483 128.326 17.3483C128.736 17.3483 129.164 17.4378 129.43 17.5801V18.9508C128.968 18.7546 128.434 18.6835 128.096 18.6835C126.743 18.6835 125.8 19.8948 125.8 21.6739V26.5167Z" fill="white"/>
</g>
</g>
<defs>
<clipPath id="clip0_302_763">
<rect width="130" height="40" fill="white"/>
</clipPath>
<clipPath id="clip1_302_763">
<rect width="130" height="31.3253" fill="white" transform="translate(0 4.33789)"/>
</clipPath>
</defs>
</svg>
