<svg width="130" height="40" viewBox="0 0 130 40" fill="none" xmlns="http://www.w3.org/2000/svg">
<g clip-path="url(#clip0_302_772)">
<g clip-path="url(#clip1_302_772)">
<path fill-rule="evenodd" clip-rule="evenodd" d="M0.557841 7.49961C0 8.59444 0 10.0276 0 12.8941V27.1043C0 29.9707 0 31.4039 0.557841 32.4988C1.04853 33.4618 1.8315 34.2447 2.79453 34.7355C3.88936 35.2933 5.32257 35.2933 8.18901 35.2933H22.5121C25.3785 35.2933 26.8117 35.2933 27.9066 34.7355C28.8696 34.2447 29.6525 33.4618 30.1433 32.4988C30.7011 31.4039 30.7011 29.9707 30.7011 27.1043V12.8941C30.7011 10.0276 30.7011 8.59444 30.1433 7.49961C29.6525 6.53658 28.8696 5.75361 27.9066 5.26292C26.8117 4.70508 25.3785 4.70508 22.5121 4.70508H8.18901C5.32257 4.70508 3.88936 4.70508 2.79453 5.26292C1.8315 5.75361 1.04853 6.53658 0.557841 7.49961ZM6.65881 12.3537C6.13266 12.3537 5.92994 13.0018 6.37142 13.2726L17.4159 19.9075C17.6912 20.0764 18.0583 20.0097 18.2479 19.7563L23.1038 13.4048C23.434 12.9635 23.1004 12.3537 22.5289 12.3537H6.65881ZM24.0176 27.6478C24.5437 27.6478 24.7516 26.996 24.3102 26.7253L13.2626 20.0913C12.9873 19.9224 12.629 19.9976 12.4395 20.2509L7.57417 26.6012C7.24409 27.0424 7.58809 27.6478 8.15949 27.6478H24.0176Z" fill="white"/>
<mask id="mask0_302_772" style="mask-type:luminance" maskUnits="userSpaceOnUse" x="40" y="12" width="85" height="16">
<path d="M124.844 12.3516H40.8945V27.6457H124.844V12.3516Z" fill="white"/>
</mask>
<g mask="url(#mask0_302_772)">
<path d="M40.8945 27.0008L48.0405 15.1769H41.6909V12.5586H52.8393V12.9534L45.8401 24.7773H52.5878V27.4164H40.8945V27.0008Z" fill="white"/>
<path d="M56.541 12.5586H66.3064V15.1769H59.9149V18.6472H65.0281V21.0992H59.9149V24.7981H66.6416V27.4164H56.541V12.5586Z" fill="white"/>
<path d="M70.5693 12.5586H75.934C76.8145 12.5586 77.6106 12.6487 78.3233 12.8288C79.036 13.0089 79.6432 13.2859 80.1464 13.66C80.6495 14.034 81.0334 14.505 81.2988 15.073C81.5779 15.641 81.7178 16.306 81.7178 17.0679V17.151C81.7178 17.719 81.6414 18.2177 81.4876 18.6472C81.3339 19.0766 81.1175 19.4507 80.8377 19.7693C80.5585 20.088 80.2305 20.3581 79.8527 20.5797C79.4757 20.8014 79.0704 20.9746 78.6376 21.0992L82.598 27.4164H78.9939L75.4101 21.6811H73.9432V27.4164H70.5693V12.5586ZM75.8502 19.3953C76.7029 19.3953 77.3384 19.2151 77.7574 18.855C78.1902 18.4948 78.4066 17.9615 78.4066 17.2549V17.1718C78.4066 16.4099 78.1834 15.8835 77.7368 15.5925C77.3032 15.2878 76.6746 15.1353 75.8502 15.1353H73.9432V19.3953H75.8502Z" fill="white"/>
<path d="M86.1689 12.5586H89.5849V27.4164H86.1689V12.5586Z" fill="white"/>
<path d="M100.84 24.9651C101.469 24.9651 102.035 24.8473 102.538 24.6118C103.055 24.3763 103.495 24.0438 103.858 23.6144C104.207 23.1988 104.48 22.6862 104.675 22.0766C104.871 21.4671 104.968 20.7883 104.968 20.0401V19.874C104.968 19.1535 104.871 18.4955 104.675 17.8998C104.493 17.3041 104.228 16.7916 103.878 16.3621C103.515 15.9327 103.076 15.6002 102.559 15.3647C102.042 15.1291 101.455 15.0114 100.798 15.0114C100.142 15.0114 99.5548 15.1291 99.0379 15.3647C98.5354 15.5863 98.1019 15.9049 97.7386 16.3205C97.3754 16.75 97.0963 17.2695 96.9005 17.8791C96.7193 18.4747 96.6283 19.1467 96.6283 19.8947V20.0609C96.6283 20.8229 96.733 21.5086 96.9426 22.1182C97.1521 22.7139 97.4457 23.2196 97.8227 23.6351C98.186 24.0646 98.6257 24.3971 99.1426 24.6326C99.6596 24.8542 100.225 24.9651 100.84 24.9651ZM100.778 27.6457C99.6037 27.6457 98.5423 27.4586 97.5918 27.0846C96.642 26.6968 95.8391 26.1634 95.1822 25.4845C94.5116 24.8196 93.9946 24.023 93.6314 23.0948C93.2682 22.1666 93.0869 21.1623 93.0869 20.0817V19.9155C93.0869 18.8072 93.275 17.789 93.6528 16.8608C94.0436 15.9327 94.5888 15.1361 95.287 14.4711C95.9714 13.8062 96.782 13.2866 97.718 12.9126C98.654 12.5386 99.681 12.3516 100.798 12.3516C101.93 12.3516 102.964 12.5317 103.9 12.8918C104.85 13.252 105.667 13.7577 106.352 14.4088C107.022 15.0738 107.546 15.8634 107.923 16.7777C108.315 17.692 108.51 18.7102 108.51 19.8324V19.9986C108.51 21.1069 108.321 22.1321 107.944 23.074C107.581 24.0022 107.064 24.8057 106.394 25.4845C105.723 26.1634 104.912 26.6968 103.963 27.0846C103.013 27.4586 101.951 27.6457 100.778 27.6457Z" fill="white"/>
<path d="M112.186 12.5586H116.125L121.825 22.3461V12.5586H124.843V27.4164H121.448L115.203 16.8393V27.4164H112.186V12.5586Z" fill="white"/>
</g>
</g>
</g>
<defs>
<clipPath id="clip0_302_772">
<rect width="130" height="40" fill="white"/>
</clipPath>
<clipPath id="clip1_302_772">
<rect width="130" height="30.5882" fill="white" transform="translate(0 4.70508)"/>
</clipPath>
</defs>
</svg>
