<svg width="64" height="65" viewBox="0 0 64 65" fill="none" xmlns="http://www.w3.org/2000/svg">
<g clip-path="url(#clip0_289_658)">
<g clip-path="url(#clip1_289_658)">
<g clip-path="url(#clip2_289_658)">
<path d="M47.7537 1.05273H16.246C7.54542 1.05273 0.492188 8.10597 0.492188 16.8066V48.3143C0.492188 57.0149 7.54542 64.0681 16.246 64.0681H47.7537C56.4543 64.0681 63.5076 57.0149 63.5076 48.3143V16.8066C63.5076 8.10597 56.4543 1.05273 47.7537 1.05273Z" fill="#EB8F3A"/>
<path fill-rule="evenodd" clip-rule="evenodd" d="M45.1285 25.9961V23.3704C45.1285 22.252 44.4473 21.3953 43.6997 20.8063C42.9374 20.2055 41.9157 19.7219 40.7701 19.3401C38.4653 18.5718 35.3649 18.1191 32.0002 18.1191C28.6357 18.1191 25.5352 18.5718 23.2304 19.3401C22.0849 19.7219 21.0631 20.2055 20.3007 20.8063C19.5532 21.3953 18.8721 22.252 18.8721 23.3704V25.9961C18.8721 27.1111 19.5458 27.968 20.2926 28.5597C21.0525 29.1619 22.0716 29.6459 23.2153 30.0278C25.5164 30.796 28.6174 31.2473 32.0002 31.2473C35.3831 31.2473 38.4841 30.796 40.7852 30.0278C41.929 29.6459 42.948 29.1619 43.7079 28.5597C44.4547 27.968 45.1285 27.1111 45.1285 25.9961ZM21.4977 23.3708C21.4977 23.3708 21.4979 23.3781 21.5017 23.3905C21.5062 23.4051 21.5171 23.434 21.5437 23.4773C21.5995 23.5681 21.7131 23.7046 21.926 23.8723C22.3595 24.2139 23.068 24.579 24.0607 24.9098C26.0322 25.5671 28.8393 25.9961 32.0002 25.9961C35.1612 25.9961 37.9683 25.5671 39.9399 24.9098C40.9325 24.579 41.6411 24.2139 42.0745 23.8723C42.2874 23.7046 42.401 23.5681 42.4568 23.4773C42.4833 23.434 42.4944 23.4051 42.4988 23.3905C42.5026 23.3779 42.5028 23.3704 42.5028 23.3704C42.5028 23.3704 42.5029 23.3639 42.4988 23.3503C42.4944 23.3357 42.4833 23.3068 42.4568 23.2635C42.401 23.1727 42.2874 23.0362 42.0745 22.8684C41.6411 22.5269 40.9325 22.1618 39.9399 21.8309C37.9683 21.1737 35.1612 20.7447 32.0002 20.7447C28.8393 20.7447 26.0322 21.1737 24.0607 21.8309C23.068 22.1618 22.3595 22.5269 21.926 22.8684C21.7131 23.0362 21.5995 23.1727 21.5437 23.2635C21.5171 23.3068 21.5062 23.3357 21.5017 23.3503C21.4976 23.3636 21.4977 23.3708 21.4977 23.3708Z" fill="url(#paint0_linear_289_658)"/>
<path d="M44.5924 30.5918C44.4374 30.5918 44.2913 30.6602 44.183 30.771C44.0358 30.9216 43.8793 31.0602 43.7196 31.1866C42.9589 31.7888 41.9389 32.2728 40.794 32.6547C38.4906 33.4229 35.3864 33.8742 32.0002 33.8742C28.6141 33.8742 25.5099 33.4229 23.2065 32.6547C22.0616 32.2728 21.0416 31.7888 20.2809 31.1866C20.1212 31.0602 19.9648 30.9216 19.8176 30.771C19.7092 30.6602 19.5631 30.5918 19.4081 30.5918C19.112 30.5918 18.8721 30.8318 18.8721 31.1279V33.8739C18.8721 34.989 19.5458 35.8458 20.2926 36.4376C21.0525 37.0397 22.0716 37.5238 23.2153 37.9056C25.5164 38.6738 28.6174 39.1252 32.0002 39.1252C35.3831 39.1252 38.4841 38.6738 40.7852 37.9056C41.929 37.5238 42.948 37.0397 43.7079 36.4376C44.4547 35.8458 45.1285 34.989 45.1285 33.8739V31.1279C45.1285 30.8318 44.8885 30.5918 44.5924 30.5918Z" fill="url(#paint1_linear_289_658)"/>
<path d="M44.5924 38.4688C44.4374 38.4688 44.2913 38.5372 44.183 38.6479C44.0358 38.7986 43.8793 38.9371 43.7196 39.0636C42.9589 39.6657 41.9389 40.1498 40.794 40.5316C38.4906 41.2998 35.3864 41.7512 32.0002 41.7512C28.6141 41.7512 25.5099 41.2998 23.2065 40.5316C22.0616 40.1498 21.0416 39.6657 20.2809 39.0636C20.1212 38.9371 19.9648 38.7986 19.8176 38.6479C19.7092 38.5372 19.5631 38.4688 19.4081 38.4688C19.112 38.4688 18.8721 38.7088 18.8721 39.0049V41.7509C18.8721 42.8659 19.5458 43.7228 20.2926 44.3145C21.0525 44.9167 22.0716 45.4007 23.2153 45.7826C25.5164 46.5508 28.6174 47.0021 32.0002 47.0021C35.3831 47.0021 38.4841 46.5508 40.7852 45.7826C41.929 45.4007 42.948 44.9167 43.7079 44.3145C44.4547 43.7228 45.1285 42.8659 45.1285 41.7509V39.0049C45.1285 38.7088 44.8885 38.4688 44.5924 38.4688Z" fill="url(#paint2_linear_289_658)"/>
</g>
</g>
</g>
<defs>
<linearGradient id="paint0_linear_289_658" x1="25.2872" y1="26.6525" x2="47.3408" y2="46.7012" gradientUnits="userSpaceOnUse">
<stop stop-color="white" stop-opacity="0.9"/>
<stop offset="1" stop-color="white" stop-opacity="0.2"/>
</linearGradient>
<linearGradient id="paint1_linear_289_658" x1="25.2872" y1="26.6534" x2="47.3408" y2="46.7022" gradientUnits="userSpaceOnUse">
<stop stop-color="white" stop-opacity="0.9"/>
<stop offset="1" stop-color="white" stop-opacity="0.2"/>
</linearGradient>
<linearGradient id="paint2_linear_289_658" x1="25.2872" y1="26.6535" x2="47.3408" y2="46.7022" gradientUnits="userSpaceOnUse">
<stop stop-color="white" stop-opacity="0.9"/>
<stop offset="1" stop-color="white" stop-opacity="0.2"/>
</linearGradient>
<clipPath id="clip0_289_658">
<rect width="64" height="64" fill="white" transform="translate(0 0.560547)"/>
</clipPath>
<clipPath id="clip1_289_658">
<rect width="64" height="64" fill="white" transform="translate(0 0.560547)"/>
</clipPath>
<clipPath id="clip2_289_658">
<rect width="64" height="63.0154" fill="white" transform="translate(0 1.05273)"/>
</clipPath>
</defs>
</svg>
