<svg width="65" height="65" viewBox="0 0 65 65" fill="none" xmlns="http://www.w3.org/2000/svg">
<g clip-path="url(#clip0_289_669)">
<g clip-path="url(#clip1_289_669)">
<g clip-path="url(#clip2_289_669)">
<path d="M48.4139 1.05273H16.9062C8.20558 1.05273 1.15234 8.10597 1.15234 16.8066V48.3143C1.15234 57.0149 8.20558 64.0681 16.9062 64.0681H48.4139C57.1145 64.0681 64.1677 57.0149 64.1677 48.3143V16.8066C64.1677 8.10597 57.1145 1.05273 48.4139 1.05273Z" fill="#6B32E4"/>
<path fill-rule="evenodd" clip-rule="evenodd" d="M32.285 18.2359C32.534 18.2 32.7869 18.2 33.0359 18.2359C33.3229 18.2775 33.5901 18.3783 33.8021 18.4585L33.859 18.4799L41.0695 21.1837C41.8806 21.4864 42.5928 21.7524 43.1413 22.2358C43.6212 22.6586 43.9908 23.1921 44.2183 23.7899C44.4783 24.4732 44.4772 25.2335 44.476 26.0992L44.4759 32.5607C44.4759 36.2716 42.4576 39.3654 40.276 41.6381C38.0798 43.9261 35.5671 45.5422 34.2383 46.3173L34.1845 46.3489C33.9421 46.4912 33.6273 46.6761 33.211 46.7653C32.8704 46.8383 32.4505 46.8383 32.1099 46.7653C31.6936 46.6761 31.3788 46.4912 31.1364 46.3489L31.0825 46.3173C29.7538 45.5422 27.2411 43.9261 25.0449 41.6381C22.8633 39.3654 20.8451 36.2716 20.8451 32.5607L20.8449 26.0992C20.8436 25.2335 20.8425 24.4732 21.1026 23.7899C21.33 23.1921 21.6996 22.6586 22.1795 22.2358C22.7281 21.7524 23.4403 21.4864 24.2514 21.1837L31.4619 18.4799L31.5187 18.4585C31.7308 18.3783 31.9979 18.2775 32.285 18.2359ZM38.1836 29.5507C38.6963 29.0381 38.6963 28.2068 38.1836 27.6942C37.6709 27.1815 36.8397 27.1815 36.327 27.6942L31.3476 32.6735L29.6502 30.9762C29.1375 30.4635 28.3063 30.4635 27.7936 30.9762C27.2809 31.4889 27.2809 32.3201 27.7936 32.8328L30.4193 35.4584C30.932 35.9711 31.7632 35.9711 32.2759 35.4584L38.1836 29.5507Z" fill="url(#paint0_linear_289_669)"/>
</g>
</g>
</g>
<defs>
<linearGradient id="paint0_linear_289_669" x1="37.744" y1="25.3624" x2="18.6326" y2="41.1481" gradientUnits="userSpaceOnUse">
<stop stop-color="white" stop-opacity="0.9"/>
<stop offset="1" stop-color="white" stop-opacity="0.2"/>
</linearGradient>
<clipPath id="clip0_289_669">
<rect width="64" height="64" fill="white" transform="translate(0.660156 0.560547)"/>
</clipPath>
<clipPath id="clip1_289_669">
<rect width="64" height="64" fill="white" transform="translate(0.660156 0.560547)"/>
</clipPath>
<clipPath id="clip2_289_669">
<rect width="64" height="63.0154" fill="white" transform="translate(0.660156 1.05273)"/>
</clipPath>
</defs>
</svg>
