<svg width="65" height="65" viewBox="0 0 65 65" fill="none" xmlns="http://www.w3.org/2000/svg">
<g clip-path="url(#clip0_289_678)">
<g clip-path="url(#clip1_289_678)">
<g clip-path="url(#clip2_289_678)">
<path d="M48.0838 1.05273H16.5761C7.8755 1.05273 0.822266 8.10597 0.822266 16.8066V48.3143C0.822266 57.0149 7.8755 64.0681 16.5761 64.0681H48.0838C56.7844 64.0681 63.8377 57.0149 63.8377 48.3143V16.8066C63.8377 8.10597 56.7844 1.05273 48.0838 1.05273Z" fill="#AA8544"/>
<path fill-rule="evenodd" clip-rule="evenodd" d="M41.2269 28.6211C41.2371 28.6212 41.2472 28.6212 41.2573 28.6212H44.4081C44.418 28.6212 44.4281 28.6212 44.4384 28.6212C44.5947 28.6211 44.7815 28.621 44.9461 28.6345C45.1367 28.65 45.4097 28.69 45.6958 28.8357C46.0664 29.0246 46.3676 29.3259 46.5565 29.6964C46.7022 29.9825 46.7422 30.2556 46.7577 30.4462C46.7712 30.6107 46.7711 30.7975 46.7711 30.9538C46.7711 30.9641 46.7711 30.9742 46.7711 30.9843V44.6375C46.7711 44.6476 46.7711 44.6576 46.7711 44.668C46.7711 44.8243 46.7712 45.0111 46.7577 45.1756C46.7422 45.3663 46.7022 45.6393 46.5565 45.9254C46.3676 46.2959 46.0664 46.5972 45.6958 46.786C45.4097 46.9318 45.1367 46.9718 44.9461 46.9873C44.7815 47.0008 44.5947 47.0007 44.4384 47.0006C44.4281 47.0006 44.418 47.0006 44.4081 47.0006H30.7547C30.7447 47.0006 30.7345 47.0006 30.7243 47.0006C30.5679 47.0007 30.3811 47.0008 30.2166 46.9873C30.026 46.9718 29.7529 46.9318 29.4668 46.786C29.0963 46.5972 28.795 46.2959 28.6063 45.9254C28.4604 45.6393 28.4205 45.3663 28.4049 45.1756C28.3914 45.0111 28.3915 44.8243 28.3916 44.668C28.3916 44.6577 28.3916 44.6476 28.3916 44.6375V41.4868C28.3916 41.4768 28.3916 41.4667 28.3916 41.4564C28.3915 41.3001 28.3914 41.1133 28.4049 40.9488C28.4205 40.7582 28.4604 40.485 28.6063 40.1989C28.795 39.8284 29.0963 39.5272 29.4668 39.3383C29.7529 39.1925 30.026 39.1526 30.2166 39.137C30.3811 39.1236 30.5679 39.1237 30.7243 39.1237C30.7346 39.1237 30.7447 39.1237 30.7547 39.1237H33.6429V36.2355C33.6429 36.2255 33.6429 36.2154 33.6429 36.2051C33.6429 36.0487 33.6428 35.862 33.6562 35.6974C33.6718 35.5068 33.7117 35.2338 33.8575 34.9476C34.0464 34.5771 34.3476 34.2758 34.7181 34.0871C35.0042 33.9413 35.2773 33.9013 35.4679 33.8857C35.6325 33.8722 35.8193 33.8723 35.9756 33.8724C35.9859 33.8724 35.996 33.8724 36.0059 33.8724H38.8942V30.9843C38.8942 30.9742 38.8942 30.9641 38.8941 30.9538C38.8941 30.7975 38.894 30.6107 38.9075 30.4462C38.9231 30.2556 38.963 29.9825 39.1088 29.6964C39.2976 29.3259 39.5989 29.0246 39.9694 28.8357C40.2555 28.69 40.5286 28.65 40.7192 28.6345C40.8837 28.621 41.0705 28.6211 41.2269 28.6211Z" fill="url(#paint0_linear_289_678)"/>
<path fill-rule="evenodd" clip-rule="evenodd" d="M30.7243 23.3711C30.7346 23.3711 30.7447 23.3711 30.7547 23.3711H33.9055C33.9154 23.3711 33.9256 23.3711 33.9358 23.3711C34.0922 23.3711 34.2789 23.371 34.4435 23.3844C34.6342 23.4 34.9072 23.4399 35.1933 23.5857C35.5639 23.7746 35.8651 24.0758 36.0539 24.4463C36.1997 24.7324 36.2397 25.0056 36.2552 25.1962C36.2686 25.3607 36.2686 25.5475 36.2685 25.7038C36.2685 25.7141 36.2685 25.7242 36.2685 25.7342V28.8849C36.2685 28.895 36.2685 28.9051 36.2685 28.9154C36.2686 29.0717 36.2686 29.2585 36.2552 29.423C36.2397 29.6137 36.1997 29.8867 36.0539 30.1728C35.8651 30.5433 35.5639 30.8446 35.1933 31.0334C34.9072 31.1792 34.6342 31.2192 34.4435 31.2347C34.2789 31.2482 34.0922 31.2481 33.9358 31.248C33.9256 31.248 33.9154 31.248 33.9055 31.248H30.7547C30.7447 31.248 30.7346 31.248 30.7243 31.248C30.5679 31.2481 30.3811 31.2482 30.2166 31.2347C30.026 31.2192 29.7529 31.1792 29.4668 31.0334C29.0963 30.8446 28.795 30.5433 28.6063 30.1728C28.4604 29.8867 28.4205 29.6137 28.4049 29.423C28.3914 29.2585 28.3915 29.0717 28.3916 28.9154C28.3916 28.9051 28.3916 28.895 28.3916 28.8849V25.7342C28.3916 25.7242 28.3916 25.7141 28.3916 25.7038C28.3915 25.5475 28.3914 25.3607 28.4049 25.1962C28.4205 25.0056 28.4604 24.7324 28.6063 24.4463C28.795 24.0758 29.0963 23.7746 29.4668 23.5857C29.7529 23.4399 30.026 23.4 30.2166 23.3844C30.3811 23.371 30.5679 23.3711 30.7243 23.3711Z" fill="url(#paint1_linear_289_678)"/>
<path fill-rule="evenodd" clip-rule="evenodd" d="M21.5339 31.248C21.5442 31.248 21.5543 31.248 21.5643 31.248H24.7151C24.7251 31.248 24.7352 31.248 24.7454 31.248C24.9018 31.248 25.0886 31.2479 25.2531 31.2613C25.4437 31.277 25.7168 31.3169 26.0029 31.4627C26.3735 31.6515 26.6747 31.9527 26.8635 32.3232C27.0093 32.6094 27.0492 32.8825 27.0648 33.0731C27.0783 33.2377 27.0782 33.4244 27.0782 33.5808C27.0782 33.591 27.0782 33.6012 27.0782 33.6111V36.7619C27.0782 36.7719 27.0782 36.7821 27.0782 36.7923C27.0782 36.9487 27.0783 37.1355 27.0648 37.3C27.0492 37.4906 27.0093 37.7636 26.8635 38.0498C26.6747 38.4203 26.3735 38.7216 26.0029 38.9103C25.7168 39.0561 25.4437 39.0961 25.2531 39.1117C25.0886 39.1252 24.9018 39.1251 24.7454 39.125C24.7352 39.125 24.7251 39.125 24.7151 39.125H21.5643C21.5543 39.125 21.5442 39.125 21.5339 39.125C21.3776 39.1251 21.1908 39.1252 21.0263 39.1117C20.8356 39.0961 20.5626 39.0561 20.2765 38.9103C19.906 38.7216 19.6047 38.4203 19.4158 38.0498C19.2701 37.7636 19.2301 37.4906 19.2146 37.3C19.2011 37.1355 19.2012 36.9487 19.2012 36.7923C19.2013 36.7821 19.2013 36.7719 19.2013 36.7619V33.6111C19.2013 33.6012 19.2013 33.591 19.2012 33.5808C19.2012 33.4244 19.2011 33.2377 19.2146 33.0731C19.2301 32.8825 19.2701 32.6094 19.4158 32.3232C19.6047 31.9527 19.906 31.6515 20.2765 31.4627C20.5626 31.3169 20.8356 31.277 21.0263 31.2613C21.1908 31.2479 21.3776 31.248 21.5339 31.248Z" fill="url(#paint2_linear_289_678)"/>
<path fill-rule="evenodd" clip-rule="evenodd" d="M20.2214 18.1192C20.2317 18.1192 20.2418 18.1192 20.2517 18.1192H23.4025C23.4126 18.1192 23.4227 18.1192 23.4329 18.1192C23.5893 18.1191 23.7761 18.119 23.9406 18.1324C24.1312 18.148 24.4043 18.188 24.6904 18.3338C25.0609 18.5226 25.3622 18.8238 25.5509 19.1944C25.6968 19.4805 25.7367 19.7535 25.7523 19.9441C25.7658 20.1087 25.7657 20.2955 25.7656 20.4518C25.7656 20.4621 25.7656 20.4722 25.7656 20.4822V23.633C25.7656 23.6429 25.7656 23.6531 25.7656 23.6633C25.7657 23.8198 25.7658 24.0065 25.7523 24.171C25.7367 24.3617 25.6968 24.6348 25.5509 24.9209C25.3622 25.2914 25.0609 25.5927 24.6904 25.7814C24.4043 25.9273 24.1312 25.9672 23.9406 25.9828C23.7761 25.9962 23.5893 25.9962 23.4329 25.9961C23.4227 25.9961 23.4126 25.9961 23.4025 25.9961H20.2517C20.2418 25.9961 20.2317 25.9961 20.2214 25.9961C20.0651 25.9962 19.8783 25.9962 19.7138 25.9828C19.5231 25.9672 19.25 25.9273 18.9639 25.7814C18.5934 25.5927 18.2922 25.2914 18.1033 24.9209C17.9575 24.6348 17.9176 24.3617 17.902 24.171C17.8886 24.0065 17.8887 23.8198 17.8887 23.6633C17.8887 23.6531 17.8887 23.6429 17.8887 23.633V20.4822C17.8887 20.4722 17.8887 20.4621 17.8887 20.4518C17.8887 20.2955 17.8886 20.1087 17.902 19.9441C17.9176 19.7535 17.9575 19.4805 18.1033 19.1944C18.2922 18.8238 18.5934 18.5226 18.9639 18.3338C19.25 18.188 19.5231 18.148 19.7138 18.1324C19.8783 18.119 20.0651 18.1191 20.2214 18.1192Z" fill="url(#paint3_linear_289_678)"/>
</g>
</g>
</g>
<defs>
<linearGradient id="paint0_linear_289_678" x1="24.9457" y1="26.652" x2="47.0996" y2="48.8059" gradientUnits="userSpaceOnUse">
<stop stop-color="white" stop-opacity="0.9"/>
<stop offset="1" stop-color="white" stop-opacity="0.2"/>
</linearGradient>
<linearGradient id="paint1_linear_289_678" x1="24.9457" y1="26.6532" x2="47.0996" y2="48.8072" gradientUnits="userSpaceOnUse">
<stop stop-color="white" stop-opacity="0.9"/>
<stop offset="1" stop-color="white" stop-opacity="0.2"/>
</linearGradient>
<linearGradient id="paint2_linear_289_678" x1="24.945" y1="26.6532" x2="47.099" y2="48.8072" gradientUnits="userSpaceOnUse">
<stop stop-color="white" stop-opacity="0.9"/>
<stop offset="1" stop-color="white" stop-opacity="0.2"/>
</linearGradient>
<linearGradient id="paint3_linear_289_678" x1="24.9453" y1="26.6525" x2="47.0993" y2="48.8065" gradientUnits="userSpaceOnUse">
<stop stop-color="white" stop-opacity="0.9"/>
<stop offset="1" stop-color="white" stop-opacity="0.2"/>
</linearGradient>
<clipPath id="clip0_289_678">
<rect width="64" height="64" fill="white" transform="translate(0.330078 0.560547)"/>
</clipPath>
<clipPath id="clip1_289_678">
<rect width="64" height="64" fill="white" transform="translate(0.330078 0.560547)"/>
</clipPath>
<clipPath id="clip2_289_678">
<rect width="64" height="63.0154" fill="white" transform="translate(0.330078 1.05273)"/>
</clipPath>
</defs>
</svg>
