<svg width="65" height="65" viewBox="0 0 65 65" fill="none" xmlns="http://www.w3.org/2000/svg">
<g clip-path="url(#clip0_225_1952)">
<g clip-path="url(#clip1_225_1952)">
<g clip-path="url(#clip2_225_1952)">
<path d="M48.0565 1.27344H16.5488C7.84816 1.27344 0.794922 8.32667 0.794922 17.0273V48.535C0.794922 57.2356 7.84816 64.2888 16.5488 64.2888H48.0565C56.7571 64.2888 63.8103 57.2356 63.8103 48.535V17.0273C63.8103 8.32667 56.7571 1.27344 48.0565 1.27344Z" fill="#01A74D"/>
<path d="M39.968 19.6523H24.638C23.9461 19.6523 23.349 19.6523 22.8573 19.6925C22.3382 19.735 21.8219 19.8285 21.3252 20.0816C20.5842 20.4592 19.9817 21.0617 19.6041 21.8028C19.351 22.2996 19.2573 22.8158 19.215 23.3348C19.1748 23.8265 19.1748 24.4235 19.1748 25.1156V25.4288C19.1748 26.164 19.1748 26.5317 19.3179 26.8125C19.4437 27.0595 19.6446 27.2604 19.8916 27.3862C20.1724 27.5293 20.5401 27.5293 21.2753 27.5293H43.3307C44.066 27.5293 44.4335 27.5293 44.7143 27.3862C44.9614 27.2604 45.1623 27.0595 45.2881 26.8125C45.4312 26.5317 45.4312 26.164 45.4312 25.4288V25.1156C45.4312 24.4236 45.4312 23.8265 45.3911 23.3348C45.3486 22.8158 45.255 22.2996 45.002 21.8028C44.6244 21.0617 44.0219 20.4592 43.2808 20.0816C42.784 19.8285 42.2678 19.735 41.7488 19.6925C41.2571 19.6523 40.66 19.6523 39.968 19.6523Z" fill="url(#paint0_linear_225_1952)"/>
<path d="M45.4316 32.2567C45.4316 31.5215 45.4316 31.1539 45.2884 30.8731C45.1626 30.626 44.9617 30.4251 44.7147 30.2993C44.4339 30.1562 44.0663 30.1563 43.331 30.1563H31.7782C31.043 30.1563 30.6753 30.1562 30.3945 30.2993C30.1475 30.4251 29.9466 30.626 29.8208 30.8731C29.6777 31.1539 29.6777 31.5215 29.6777 32.2567V43.8096C29.6777 44.5448 29.6777 44.9125 29.8208 45.1933C29.9466 45.4403 30.1475 45.6411 30.3945 45.767C30.6753 45.9101 31.043 45.9101 31.7782 45.9101H39.9683C40.6603 45.9101 41.2574 45.9101 41.7491 45.8699C42.2681 45.8276 42.7843 45.7339 43.2811 45.4808C44.0222 45.1032 44.6247 44.5007 45.0023 43.7597C45.2553 43.2629 45.349 42.7467 45.3914 42.2276C45.4316 41.7359 45.4316 41.1389 45.4316 40.4469V32.2567Z" fill="url(#paint1_linear_225_1952)"/>
<path d="M24.9512 45.9101C25.6865 45.9101 26.0541 45.9101 26.3349 45.767C26.582 45.6411 26.7827 45.4403 26.9087 45.1933C27.0517 44.9125 27.0517 44.5448 27.0517 43.8096V32.2567C27.0517 31.5215 27.0517 31.1539 26.9087 30.8731C26.7827 30.626 26.582 30.4251 26.3349 30.2993C26.0541 30.1562 25.6865 30.1563 24.9512 30.1563H21.2753C20.5401 30.1563 20.1724 30.1562 19.8916 30.2993C19.6446 30.4251 19.4437 30.626 19.3179 30.8731C19.1748 31.1539 19.1748 31.5215 19.1748 32.2567V40.4469C19.1748 41.1388 19.1748 41.7359 19.215 42.2276C19.2573 42.7467 19.351 43.2629 19.6041 43.7597C19.9817 44.5007 20.5842 45.1032 21.3252 45.4808C21.8219 45.7339 22.3382 45.8276 22.8573 45.8699C23.349 45.9101 23.946 45.9101 24.638 45.9101H24.9512Z" fill="url(#paint2_linear_225_1952)"/>
</g>
</g>
</g>
<defs>
<linearGradient id="paint0_linear_225_1952" x1="37.9512" y1="26.2171" x2="20.0912" y2="44.0778" gradientUnits="userSpaceOnUse">
<stop stop-color="white" stop-opacity="0.9"/>
<stop offset="1" stop-color="white" stop-opacity="0.2"/>
</linearGradient>
<linearGradient id="paint1_linear_225_1952" x1="37.9516" y1="26.2184" x2="20.0915" y2="44.0791" gradientUnits="userSpaceOnUse">
<stop stop-color="white" stop-opacity="0.9"/>
<stop offset="1" stop-color="white" stop-opacity="0.2"/>
</linearGradient>
<linearGradient id="paint2_linear_225_1952" x1="37.9512" y1="26.2184" x2="20.0912" y2="44.0791" gradientUnits="userSpaceOnUse">
<stop stop-color="white" stop-opacity="0.9"/>
<stop offset="1" stop-color="white" stop-opacity="0.2"/>
</linearGradient>
<clipPath id="clip0_225_1952">
<rect width="64" height="64" fill="white" transform="translate(0.302734 0.78125)"/>
</clipPath>
<clipPath id="clip1_225_1952">
<rect width="64" height="64" fill="white" transform="translate(0.302734 0.78125)"/>
</clipPath>
<clipPath id="clip2_225_1952">
<rect width="64" height="63.0154" fill="white" transform="translate(0.302734 1.27344)"/>
</clipPath>
</defs>
</svg>
