<svg width="64" height="64" viewBox="0 0 64 64" fill="none" xmlns="http://www.w3.org/2000/svg">
<g clip-path="url(#clip0_291_705)">
<g clip-path="url(#clip1_291_705)">
<g clip-path="url(#clip2_291_705)">
<path d="M47.7537 0.492188H16.246C7.54542 0.492188 0.492188 7.54542 0.492188 16.246V47.7537C0.492188 56.4543 7.54542 63.5076 16.246 63.5076H47.7537C56.4543 63.5076 63.5076 56.4543 63.5076 47.7537V16.246C63.5076 7.54542 56.4543 0.492188 47.7537 0.492188Z" fill="#3A65EB"/>
<path d="M23.1944 17.9431C23.7071 17.4304 24.5383 17.4304 25.051 17.9431L27.6766 20.5688C28.1893 21.0815 28.1893 21.9127 27.6766 22.4254L25.051 25.051C24.5383 25.5636 23.7071 25.5636 23.1944 25.051C22.6817 24.5384 22.6817 23.707 23.1944 23.1944L23.5354 22.8534C21.6388 23.137 20.1843 24.7728 20.1843 26.7483C20.1843 27.4734 19.5965 28.0611 18.8714 28.0611C18.1464 28.0611 17.5586 27.4734 17.5586 26.7483C17.5586 23.2992 20.2188 20.4714 23.5995 20.2048L23.1944 19.7997C22.6817 19.287 22.6817 18.4558 23.1944 17.9431Z" fill="url(#paint0_linear_291_705)"/>
<path d="M40.8052 38.9477C41.3179 39.4604 41.3179 40.2916 40.8052 40.8044L40.4642 41.1453C42.3608 40.8618 43.8154 39.2259 43.8154 37.2504C43.8154 36.5253 44.4031 35.9375 45.1282 35.9375C45.8533 35.9375 46.441 36.5253 46.441 37.2504C46.441 40.6995 43.7807 43.5273 40.4002 43.7939L40.8052 44.199C41.3179 44.7117 41.3179 45.5429 40.8052 46.0556C40.2925 46.5683 39.4613 46.5683 38.9486 46.0556L36.323 43.4299C36.0768 43.1838 35.9385 42.8498 35.9385 42.5016C35.9385 42.1535 36.0768 41.8195 36.323 41.5733L38.9486 38.9477C39.4613 38.435 40.2925 38.435 40.8052 38.9477Z" fill="url(#paint1_linear_291_705)"/>
<path d="M28.1426 25.5169C28.7443 21.0238 32.5927 17.5586 37.2506 17.5586C42.326 17.5586 46.4403 21.6729 46.4403 26.7483C46.4403 31.4061 42.975 35.2546 38.4819 35.8563C37.8457 30.4454 33.5534 26.1532 28.1426 25.5169Z" fill="url(#paint2_linear_291_705)"/>
<path d="M26.7483 28.0605C21.673 28.0605 17.5586 32.175 17.5586 37.2504C17.5586 42.3257 21.673 46.4401 26.7483 46.4401C31.8237 46.4401 35.9381 42.3257 35.9381 37.2504C35.9381 32.175 31.8237 28.0605 26.7483 28.0605Z" fill="url(#paint3_linear_291_705)"/>
</g>
</g>
</g>
<defs>
<linearGradient id="paint0_linear_291_705" x1="24.6152" y1="26.092" x2="46.7692" y2="48.2458" gradientUnits="userSpaceOnUse">
<stop stop-color="white" stop-opacity="0.8"/>
<stop offset="1" stop-color="white" stop-opacity="0.2"/>
</linearGradient>
<linearGradient id="paint1_linear_291_705" x1="24.6156" y1="26.0914" x2="46.7695" y2="48.2453" gradientUnits="userSpaceOnUse">
<stop stop-color="white" stop-opacity="0.8"/>
<stop offset="1" stop-color="white" stop-opacity="0.2"/>
</linearGradient>
<linearGradient id="paint2_linear_291_705" x1="24.6149" y1="26.092" x2="46.7688" y2="48.2458" gradientUnits="userSpaceOnUse">
<stop stop-color="white" stop-opacity="0.8"/>
<stop offset="1" stop-color="white" stop-opacity="0.2"/>
</linearGradient>
<linearGradient id="paint3_linear_291_705" x1="24.6152" y1="26.0914" x2="46.7692" y2="48.2453" gradientUnits="userSpaceOnUse">
<stop stop-color="white" stop-opacity="0.8"/>
<stop offset="1" stop-color="white" stop-opacity="0.2"/>
</linearGradient>
<clipPath id="clip0_291_705">
<rect width="64" height="64" fill="white"/>
</clipPath>
<clipPath id="clip1_291_705">
<rect width="64" height="64" fill="white"/>
</clipPath>
<clipPath id="clip2_291_705">
<rect width="64" height="63.0154" fill="white" transform="translate(0 0.492188)"/>
</clipPath>
</defs>
</svg>
